<mxfile host="app.diagrams.net" modified="2024-02-08T04:47:44.758Z" agent="Mozilla/5.0 (Macintosh; Intel Mac OS X 10_15_7) AppleWebKit/537.36 (KHTML, like Gecko) Chrome/121.0.0.0 Safari/537.36" etag="u0XufLabdLQjj7BT5sM0" version="23.1.1" type="device">
  <diagram name="Page-1" id="r_QA9Rb3Z6AVaBZsFyC4">
    <mxGraphModel dx="954" dy="606" grid="1" gridSize="10" guides="1" tooltips="1" connect="1" arrows="1" fold="1" page="1" pageScale="1" pageWidth="850" pageHeight="1100" math="0" shadow="0">
      <root>
        <mxCell id="0" />
        <mxCell id="1" parent="0" />
        <mxCell id="n89TH5gM_hRs1kQUuN_D-1" value="Loan Prediction" style="ellipse;whiteSpace=wrap;html=1;fillColor=#d5e8d4;strokeColor=#82b366;" vertex="1" parent="1">
          <mxGeometry x="360" y="320" width="200" height="120" as="geometry" />
        </mxCell>
        <mxCell id="n89TH5gM_hRs1kQUuN_D-2" value="USER&lt;span style=&quot;white-space: pre;&quot;&gt;&#x9;&lt;/span&gt;" style="rounded=1;whiteSpace=wrap;html=1;fillColor=#fff2cc;strokeColor=#d6b656;" vertex="1" parent="1">
          <mxGeometry x="10" y="345" width="140" height="70" as="geometry" />
        </mxCell>
        <mxCell id="n89TH5gM_hRs1kQUuN_D-3" value="ADMIN" style="rounded=1;whiteSpace=wrap;html=1;fillColor=#fff2cc;strokeColor=#d6b656;" vertex="1" parent="1">
          <mxGeometry x="720" y="345" width="140" height="70" as="geometry" />
        </mxCell>
        <mxCell id="n89TH5gM_hRs1kQUuN_D-7" value="" style="endArrow=classic;startArrow=classic;html=1;rounded=0;entryX=0;entryY=0.5;entryDx=0;entryDy=0;exitX=0;exitY=1;exitDx=0;exitDy=0;" edge="1" parent="1" source="n89TH5gM_hRs1kQUuN_D-10" target="n89TH5gM_hRs1kQUuN_D-3">
          <mxGeometry width="50" height="50" relative="1" as="geometry">
            <mxPoint x="540" y="379.5" as="sourcePoint" />
            <mxPoint x="690" y="379.5" as="targetPoint" />
          </mxGeometry>
        </mxCell>
        <mxCell id="n89TH5gM_hRs1kQUuN_D-8" value="Input of User" style="text;html=1;strokeColor=none;fillColor=none;align=center;verticalAlign=middle;whiteSpace=wrap;rounded=0;" vertex="1" parent="1">
          <mxGeometry x="210" y="345" width="110" height="30" as="geometry" />
        </mxCell>
        <mxCell id="n89TH5gM_hRs1kQUuN_D-9" value="Loan Predicted" style="text;html=1;strokeColor=none;fillColor=none;align=center;verticalAlign=middle;whiteSpace=wrap;rounded=0;" vertex="1" parent="1">
          <mxGeometry x="210" y="385" width="110" height="30" as="geometry" />
        </mxCell>
        <mxCell id="n89TH5gM_hRs1kQUuN_D-10" value="Super User" style="text;html=1;strokeColor=none;fillColor=none;align=center;verticalAlign=middle;whiteSpace=wrap;rounded=0;" vertex="1" parent="1">
          <mxGeometry x="560" y="350" width="110" height="30" as="geometry" />
        </mxCell>
        <mxCell id="n89TH5gM_hRs1kQUuN_D-12" value="Comapring Different Banks" style="ellipse;whiteSpace=wrap;html=1;fillColor=#d5e8d4;strokeColor=#82b366;" vertex="1" parent="1">
          <mxGeometry x="370" y="180" width="170" height="80" as="geometry" />
        </mxCell>
        <mxCell id="n89TH5gM_hRs1kQUuN_D-13" value="" style="endArrow=classic;html=1;rounded=0;entryX=0.015;entryY=0.425;entryDx=0;entryDy=0;entryPerimeter=0;exitX=1.029;exitY=0.4;exitDx=0;exitDy=0;exitPerimeter=0;" edge="1" parent="1" source="n89TH5gM_hRs1kQUuN_D-2" target="n89TH5gM_hRs1kQUuN_D-1">
          <mxGeometry width="50" height="50" relative="1" as="geometry">
            <mxPoint x="140" y="370" as="sourcePoint" />
            <mxPoint x="190" y="320" as="targetPoint" />
          </mxGeometry>
        </mxCell>
        <mxCell id="n89TH5gM_hRs1kQUuN_D-14" value="" style="endArrow=classic;html=1;rounded=0;entryX=1;entryY=0.6;entryDx=0;entryDy=0;entryPerimeter=0;exitX=-0.015;exitY=0.567;exitDx=0;exitDy=0;exitPerimeter=0;" edge="1" parent="1" source="n89TH5gM_hRs1kQUuN_D-1" target="n89TH5gM_hRs1kQUuN_D-2">
          <mxGeometry width="50" height="50" relative="1" as="geometry">
            <mxPoint x="158.5" y="510" as="sourcePoint" />
            <mxPoint x="371.5" y="511" as="targetPoint" />
          </mxGeometry>
        </mxCell>
        <mxCell id="n89TH5gM_hRs1kQUuN_D-15" value="User Profile" style="ellipse;whiteSpace=wrap;html=1;aspect=fixed;fillColor=#e1d5e7;strokeColor=#9673a6;" vertex="1" parent="1">
          <mxGeometry x="40" y="140" width="80" height="80" as="geometry" />
        </mxCell>
        <mxCell id="n89TH5gM_hRs1kQUuN_D-17" value="" style="endArrow=classic;html=1;rounded=0;" edge="1" parent="1" target="n89TH5gM_hRs1kQUuN_D-1">
          <mxGeometry width="50" height="50" relative="1" as="geometry">
            <mxPoint x="107" y="210" as="sourcePoint" />
            <mxPoint x="320" y="211" as="targetPoint" />
          </mxGeometry>
        </mxCell>
        <mxCell id="n89TH5gM_hRs1kQUuN_D-19" value="" style="endArrow=classic;html=1;rounded=0;exitX=0;exitY=0.5;exitDx=0;exitDy=0;entryX=1;entryY=0;entryDx=0;entryDy=0;" edge="1" parent="1" source="n89TH5gM_hRs1kQUuN_D-12" target="n89TH5gM_hRs1kQUuN_D-2">
          <mxGeometry width="50" height="50" relative="1" as="geometry">
            <mxPoint x="330" y="235" as="sourcePoint" />
            <mxPoint x="550" y="110" as="targetPoint" />
          </mxGeometry>
        </mxCell>
        <mxCell id="n89TH5gM_hRs1kQUuN_D-20" value="" style="endArrow=classic;startArrow=classic;html=1;rounded=0;entryX=0;entryY=0.5;entryDx=0;entryDy=0;exitX=1;exitY=0.5;exitDx=0;exitDy=0;" edge="1" parent="1" source="n89TH5gM_hRs1kQUuN_D-12">
          <mxGeometry width="50" height="50" relative="1" as="geometry">
            <mxPoint x="560" y="350" as="sourcePoint" />
            <mxPoint x="720" y="350" as="targetPoint" />
          </mxGeometry>
        </mxCell>
        <mxCell id="n89TH5gM_hRs1kQUuN_D-21" value="News and other insights" style="ellipse;whiteSpace=wrap;html=1;fillColor=#d5e8d4;strokeColor=#82b366;" vertex="1" parent="1">
          <mxGeometry x="375" y="600" width="170" height="90" as="geometry" />
        </mxCell>
        <mxCell id="n89TH5gM_hRs1kQUuN_D-22" value="" style="endArrow=classic;html=1;rounded=0;exitX=0;exitY=0.5;exitDx=0;exitDy=0;entryX=1;entryY=1;entryDx=0;entryDy=0;" edge="1" parent="1" source="n89TH5gM_hRs1kQUuN_D-21" target="n89TH5gM_hRs1kQUuN_D-2">
          <mxGeometry width="50" height="50" relative="1" as="geometry">
            <mxPoint x="117" y="220" as="sourcePoint" />
            <mxPoint x="383" y="352" as="targetPoint" />
          </mxGeometry>
        </mxCell>
        <mxCell id="n89TH5gM_hRs1kQUuN_D-23" value="" style="endArrow=classic;html=1;rounded=0;exitX=0;exitY=1;exitDx=0;exitDy=0;entryX=1;entryY=0.5;entryDx=0;entryDy=0;" edge="1" parent="1" source="n89TH5gM_hRs1kQUuN_D-3" target="n89TH5gM_hRs1kQUuN_D-21">
          <mxGeometry width="50" height="50" relative="1" as="geometry">
            <mxPoint x="360" y="560" as="sourcePoint" />
            <mxPoint x="150" y="425" as="targetPoint" />
          </mxGeometry>
        </mxCell>
        <mxCell id="n89TH5gM_hRs1kQUuN_D-24" value="" style="endArrow=classic;html=1;rounded=0;entryX=0.5;entryY=1;entryDx=0;entryDy=0;exitX=0.5;exitY=0;exitDx=0;exitDy=0;" edge="1" parent="1" source="n89TH5gM_hRs1kQUuN_D-2" target="n89TH5gM_hRs1kQUuN_D-15">
          <mxGeometry width="50" height="50" relative="1" as="geometry">
            <mxPoint x="70" y="340" as="sourcePoint" />
            <mxPoint x="110" y="290" as="targetPoint" />
          </mxGeometry>
        </mxCell>
        <mxCell id="n89TH5gM_hRs1kQUuN_D-25" value="User Details" style="text;html=1;strokeColor=none;fillColor=none;align=center;verticalAlign=middle;whiteSpace=wrap;rounded=0;" vertex="1" parent="1">
          <mxGeometry x="10" y="260" width="60" height="30" as="geometry" />
        </mxCell>
        <mxCell id="n89TH5gM_hRs1kQUuN_D-28" value="MYSQL&lt;br&gt;DB" style="shape=cylinder3;whiteSpace=wrap;html=1;boundedLbl=1;backgroundOutline=1;size=15;fillColor=#f8cecc;strokeColor=#b85450;" vertex="1" parent="1">
          <mxGeometry x="415" y="480" width="90" height="80" as="geometry" />
        </mxCell>
        <mxCell id="n89TH5gM_hRs1kQUuN_D-30" value="" style="endArrow=classic;startArrow=classic;html=1;rounded=0;entryX=0.5;entryY=1;entryDx=0;entryDy=0;entryPerimeter=0;exitX=0.5;exitY=0;exitDx=0;exitDy=0;exitPerimeter=0;" edge="1" parent="1" source="n89TH5gM_hRs1kQUuN_D-28" target="n89TH5gM_hRs1kQUuN_D-1">
          <mxGeometry width="50" height="50" relative="1" as="geometry">
            <mxPoint x="420" y="490" as="sourcePoint" />
            <mxPoint x="470" y="440" as="targetPoint" />
          </mxGeometry>
        </mxCell>
        <mxCell id="n89TH5gM_hRs1kQUuN_D-31" value="" style="endArrow=classic;startArrow=classic;html=1;rounded=0;entryX=0.5;entryY=1;entryDx=0;entryDy=0;entryPerimeter=0;exitX=0.5;exitY=0;exitDx=0;exitDy=0;exitPerimeter=0;" edge="1" parent="1">
          <mxGeometry width="50" height="50" relative="1" as="geometry">
            <mxPoint x="459.5" y="600" as="sourcePoint" />
            <mxPoint x="459.5" y="560" as="targetPoint" />
          </mxGeometry>
        </mxCell>
        <mxCell id="n89TH5gM_hRs1kQUuN_D-34" value="" style="endArrow=classic;startArrow=classic;html=1;rounded=0;entryX=0;entryY=0.5;entryDx=0;entryDy=0;exitX=1;exitY=0.5;exitDx=0;exitDy=0;entryPerimeter=0;" edge="1" parent="1" target="n89TH5gM_hRs1kQUuN_D-28">
          <mxGeometry width="50" height="50" relative="1" as="geometry">
            <mxPoint x="150" y="400" as="sourcePoint" />
            <mxPoint x="330" y="530" as="targetPoint" />
          </mxGeometry>
        </mxCell>
        <mxCell id="n89TH5gM_hRs1kQUuN_D-35" value="" style="endArrow=classic;startArrow=classic;html=1;rounded=0;exitX=1;exitY=0.5;exitDx=0;exitDy=0;exitPerimeter=0;" edge="1" parent="1" source="n89TH5gM_hRs1kQUuN_D-28">
          <mxGeometry width="50" height="50" relative="1" as="geometry">
            <mxPoint x="560" y="240" as="sourcePoint" />
            <mxPoint x="710" y="400" as="targetPoint" />
          </mxGeometry>
        </mxCell>
        <mxCell id="n89TH5gM_hRs1kQUuN_D-36" value="Return News to User" style="text;html=1;strokeColor=none;fillColor=none;align=center;verticalAlign=middle;whiteSpace=wrap;rounded=0;" vertex="1" parent="1">
          <mxGeometry x="170" y="510" width="80" height="30" as="geometry" />
        </mxCell>
        <mxCell id="n89TH5gM_hRs1kQUuN_D-38" value="Giving Bank Details" style="text;html=1;strokeColor=none;fillColor=none;align=center;verticalAlign=middle;whiteSpace=wrap;rounded=0;" vertex="1" parent="1">
          <mxGeometry x="630" y="260" width="110" height="30" as="geometry" />
        </mxCell>
        <mxCell id="n89TH5gM_hRs1kQUuN_D-39" value="Giving User financial information" style="text;html=1;strokeColor=none;fillColor=none;align=center;verticalAlign=middle;whiteSpace=wrap;rounded=0;" vertex="1" parent="1">
          <mxGeometry x="155" y="205" width="110" height="30" as="geometry" />
        </mxCell>
      </root>
    </mxGraphModel>
  </diagram>
</mxfile>
